<?xml version="1.0" encoding="UTF-8" standalone="no"?>
<!-- Created with Inkscape (http://www.inkscape.org/) -->

<svg
   xmlns:dc="http://purl.org/dc/elements/1.1/"
   xmlns:cc="http://creativecommons.org/ns#"
   xmlns:rdf="http://www.w3.org/1999/02/22-rdf-syntax-ns#"
   xmlns:svg="http://www.w3.org/2000/svg"
   xmlns="http://www.w3.org/2000/svg"
   xmlns:sodipodi="http://sodipodi.sourceforge.net/DTD/sodipodi-0.dtd"
   xmlns:inkscape="http://www.inkscape.org/namespaces/inkscape"
   width="16px"
   height="16px"
   viewBox="0 0 16 16"
   version="1.1"
   id="SVGRoot"
   inkscape:version="0.92.3 (2405546, 2018-03-11)"
   sodipodi:docname="yottsu.svg"
   inkscape:export-filename="D:\Projects\hg\ludum-dare-42\Assets\Project\Images\mittsu.png"
   inkscape:export-xdpi="768"
   inkscape:export-ydpi="768">
  <sodipodi:namedview
     id="base"
     pagecolor="#ffffff"
     bordercolor="#666666"
     borderopacity="1.0"
     inkscape:pageopacity="0.0"
     inkscape:pageshadow="2"
     inkscape:zoom="64"
     inkscape:cx="12.579141"
     inkscape:cy="8.1993202"
     inkscape:document-units="px"
     inkscape:current-layer="layer1"
     showgrid="false"
     inkscape:window-width="2754"
     inkscape:window-height="1755"
     inkscape:window-x="-13"
     inkscape:window-y="-13"
     inkscape:window-maximized="1"
     inkscape:grid-bbox="true"
     inkscape:pagecheckerboard="true" />
  <defs
     id="defs4644" />
  <metadata
     id="metadata4647">
    <rdf:RDF>
      <cc:Work
         rdf:about="">
        <dc:format>image/svg+xml</dc:format>
        <dc:type
           rdf:resource="http://purl.org/dc/dcmitype/StillImage" />
        <dc:title></dc:title>
      </cc:Work>
    </rdf:RDF>
  </metadata>
  <g
     id="layer1"
     inkscape:groupmode="layer"
     inkscape:label="Layer 1">
    <path
       style="fill:#ffffff;fill-opacity:1;stroke-width:0.01575342"
       d="m 6.3340356,15.301827 c -0.02587,-0.0034 -0.1246549,-0.01402 -0.2195177,-0.02347 C 5.0721895,15.174494 3.994928,14.790979 3.1039891,14.206579 2.0876135,13.539898 1.2764676,12.624036 0.73908151,11.536366 0.34254008,10.733765 0.12442094,9.9682337 0.01979904,9.0119026 -0.00658824,8.7707019 -0.00660329,7.8605062 0.01977556,7.6190951 0.10196601,6.8669142 0.25435617,6.2295561 0.50416052,5.5931933 0.89162571,4.6061475 1.4488234,3.7655204 2.21985,3.0047848 2.8042739,2.4281611 3.4060645,1.9999446 4.1545382,1.6281178 5.0421826,1.1871537 5.9242274,0.93716078 6.9847494,0.82596754 c 0.2988763,-0.0313366 1.2754035,-0.0265616 1.5836636,0.007739 1.2986689,0.14452591 2.438869,0.52969046 3.512283,1.18646506 0.776839,0.4753136 1.522553,1.1419844 2.127217,1.901739 0.196592,0.2470167 0.58402,0.8274778 0.7309,1.0950662 0.590875,1.0764642 0.969797,2.3593254 1.04769,3.5470032 0.02777,0.4234487 0.01051,1.3188802 -0.03183,1.650797 -0.194799,1.527321 -0.678519,2.826395 -1.50124,4.031721 -0.162308,0.23779 -0.480606,0.647736 -0.635811,0.81888 l -0.08568,0.09448 -0.0534,-0.04511 c -0.02936,-0.02481 -0.192834,-0.169122 -0.363263,-0.320696 -0.256856,-0.228443 -0.307336,-0.280208 -0.29509,-0.302609 0.0081,-0.01486 0.07967,-0.105368 0.158995,-0.201124 0.987121,-1.191614 1.582264,-2.571993 1.777621,-4.123026 C 15.069538,9.2722763 15.009458,8.2432488 14.792541,7.353798 14.388533,5.6971935 13.442521,4.2469773 12.104215,3.2326517 11.039622,2.425777 9.7559372,1.9398309 8.3434312,1.8089857 8.0680471,1.7834756 7.1057717,1.7993121 6.8593107,1.8334131 6.0206185,1.9494485 5.2842572,2.1689247 4.6092535,2.5040532 2.7165651,3.4437433 1.4405826,5.1479007 1.081574,7.215498 1.002969,7.6682062 0.9906761,7.8506662 1.000019,8.4262909 c 0.00923,0.567142 0.02275,0.7120019 0.105786,1.1316561 0.2738357,1.383912 0.9531424,2.534859 2.0373794,3.451928 0.6095417,0.515563 1.410791,0.922437 2.2205269,1.127583 0.9036915,0.228949 1.8092315,0.247595 2.7097218,0.05579 0.77602,-0.165287 1.5230867,-0.512874 2.1413579,-0.996307 0.322163,-0.251904 0.829352,-0.785582 1.051695,-1.106624 0.155269,-0.224193 0.318121,-0.517461 0.456924,-0.822836 0.51504,-1.133123 0.57754,-2.4990087 0.168028,-3.6721294 C 11.732876,7.1411095 11.518281,6.7448766 11.19712,6.3133381 11.085618,6.1635165 10.630136,5.6984398 10.472798,5.5737599 9.8741024,5.0993329 9.1833376,4.7996028 8.3959348,4.6725864 8.1978691,4.6406369 8.1130213,4.6359368 7.7373816,4.6361131 7.4041562,4.6362713 7.2634351,4.642758 7.1180275,4.6646763 6.2444563,4.7963506 5.5137819,5.1527757 4.9251613,5.7343631 4.6912804,5.9654493 4.5781096,6.1022979 4.4177708,6.3479091 4.145044,6.7656816 3.9730766,7.2153688 3.8771802,7.7615331 c -0.046693,0.2659123 -0.050426,0.8040368 -0.00743,1.0683556 0.1105757,0.679597 0.3757311,1.2486253 0.7960049,1.7082373 0.6363887,0.695956 1.6112802,1.055467 2.5337785,0.934385 C 8.2887108,11.329551 9.099101,10.60361 9.283817,9.6054293 9.319281,9.4137885 9.323265,9.0163258 9.291544,8.8378024 9.1742388,8.1782389 8.7107719,7.6459168 8.1100389,7.4807671 8.0343241,7.4599509 7.9452927,7.4536615 7.7217198,7.4533333 7.4593583,7.4529487 7.4211557,7.4564228 7.3218835,7.4897165 7.1498428,7.5474111 7.0193775,7.6289663 6.8891922,7.7601964 6.7020005,7.9488897 6.6282867,8.1372509 6.6437458,8.3873833 c 0.011611,0.1878521 0.077882,0.3231951 0.1860958,0.3800378 0.039588,0.020797 0.040793,0.025517 0.033337,0.1307893 -0.00873,0.1226135 0.015976,0.2244842 0.05436,0.2244842 0.024225,0 0.1416213,-0.1093811 0.5253714,-0.4894995 l 0.1994215,-0.197535 0.03994,0.037878 c 0.098013,0.092945 0.1805655,0.3056415 0.1805655,0.4652319 0,0.2852497 -0.1782324,0.5410604 -0.4849681,0.6960574 C 7.1863796,9.7315889 7.0442565,9.761639 6.822516,9.7522485 6.6183078,9.7436009 6.4612265,9.6974333 6.2913002,9.5961238 5.6828241,9.233354 5.4635483,8.3244309 5.8079688,7.5926644 5.9000609,7.3970082 6.0178589,7.2316175 6.1839718,7.0647622 6.4843222,6.7630678 6.8094925,6.5868213 7.2405119,6.4921034 c 0.1366208,-0.030023 0.2074314,-0.035106 0.4890293,-0.035106 0.2812396,0 0.3524898,0.00511 0.4883921,0.034975 1.1286271,0.2480826 1.9302717,1.1558747 2.0761397,2.3510458 0.03088,0.253029 0.01111,0.7477094 -0.03966,0.9919067 C 9.9599808,11.25137 8.769983,12.296439 7.2636839,12.461418 7.0670964,12.482953 6.6029421,12.482842 6.407897,12.461211 5.5062225,12.361243 4.6819909,11.960349 4.0363208,11.307719 3.4121448,10.676817 3.0231193,9.8837768 2.8814207,8.953423 2.8428859,8.7004454 2.8430164,7.950501 2.8816405,7.6903177 3.0043496,6.8636063 3.3334767,6.0904872 3.8283193,5.4665739 3.958887,5.3019491 4.3784252,4.8755483 4.5386937,4.7445774 5.4653726,3.9873027 6.6554136,3.5964094 7.9098588,3.6372488 c 0.7944685,0.025865 1.4720483,0.1949108 2.1875992,0.5457735 0.612233,0.300202 1.045527,0.6163364 1.513446,1.1042242 0.80567,0.8400503 1.294528,1.8537953 1.490842,3.0915612 0.03932,0.2479183 0.05748,1.0171547 0.03195,1.3532391 -0.05279,0.6948942 -0.278616,1.5006982 -0.604615,2.1573822 -0.335363,0.67555 -0.719477,1.18587 -1.312155,1.74328 -0.956129,0.899236 -2.1247231,1.437877 -3.5422688,1.632739 -0.1982031,0.02725 -0.3399388,0.03427 -0.768312,0.03804 -0.2889014,0.0025 -0.5464431,0.0018 -0.5723146,-0.0016 z"
       id="path4710"
       inkscape:connector-curvature="0" />
  </g>
</svg>
